<svg xmlns="http://www.w3.org/2000/svg" width="40" height="40" viewBox="0 0 40 40">
  <g id="Group_16" data-name="Group 16" transform="translate(-941 -861)">
    <rect id="Rectangle_7" data-name="Rectangle 7" width="40" height="40" transform="translate(941 861)" fill="#fff"/>
    <g id="noun_Phone_1070592" transform="translate(936.159 861.904)">
      <path id="Path_40" data-name="Path 40" d="M29.3,22.086c0,3.091.034,6.147.136,9.238.034,1.426.1,2.853.136,4.279a10.756,10.756,0,0,0,.374,3.464c.679,1.7,2.547,1.868,4.178,2.038a21.9,21.9,0,0,0,8.253-.747A3.716,3.716,0,0,0,45.4,37a69.454,69.454,0,0,0,.272-9.2c0-2.513.272-5.264-.238-7.744A3.833,3.833,0,0,0,41.9,16.822a23.242,23.242,0,0,0-8.661.374c-2,.442-4.178,1.393-3.8,3.8.136.815,1.359.475,1.223-.34-.442-2.785,6.657-2.819,8.185-2.785a12.028,12.028,0,0,1,3.668.34c1.528.543,1.732,1.936,1.8,3.362a94.59,94.59,0,0,1-.136,14.876c-.17,1.766-1.189,2.411-2.751,2.819a18.41,18.41,0,0,1-3.872.611,19.681,19.681,0,0,1-3.464-.068c-1.8-.17-3.023-.577-3.193-2.581-.442-4.993-.34-10.121-.34-15.148.034-.815-1.257-.815-1.257,0Z" transform="translate(-11.529 -8.902)"/>
      <path id="Path_41" data-name="Path 41" d="M37.431,71.646c3.77-.577,7.54-1.087,11.344-1.46.815-.068.815-1.359,0-1.291-3.906.408-7.812.917-11.684,1.528C36.276,70.559,36.616,71.782,37.431,71.646Z" transform="translate(-16.366 -43.449)"/>
      <path id="Path_42" data-name="Path 42" d="M51.049,75.981a1.135,1.135,0,0,0-.849,1.868,2.154,2.154,0,0,0,2.547.374,1.663,1.663,0,0,0,.713-2.276,1.377,1.377,0,0,0-2.174-.2c-.543.611.374,1.528.917.917.034-.034.1-.1.17-.034.1.136-.034.374-.136.475a.89.89,0,0,1-.713.136c-.068,0-.17-.068-.238-.068a.119.119,0,0,1-.068-.034c.034.1-.034.17-.136.2C51.864,77.306,51.864,76.049,51.049,75.981Z" transform="translate(-25.16 -47.683)"/>
      <path id="Path_43" data-name="Path 43" d="M35.411,25.308q5.451-.611,10.9-1.019c.815-.068.815-1.325,0-1.291q-5.451.408-10.9,1.019C34.6,24.119,34.6,25.376,35.411,25.308Z" transform="translate(-15.161 -13.143)"/>
      <path id="Path_44" data-name="Path 44" d="M58.121,31.57a18.964,18.964,0,0,0-2.411,2.547c-.509.645.408,1.528.917.917a18.965,18.965,0,0,1,2.411-2.547C59.65,31.909,58.733,31.026,58.121,31.57Z" transform="translate(-28.871 -18.691)"/>
      <path id="Path_45" data-name="Path 45" d="M59.744,34.58c-1.121,1.494-2.276,2.989-3.4,4.517-.509.645.611,1.291,1.087.645,1.121-1.494,2.276-2.989,3.4-4.517C61.34,34.58,60.253,33.935,59.744,34.58Z" transform="translate(-29.304 -20.615)"/>
      <path id="Path_46" data-name="Path 46" d="M64.091,8.837a6.052,6.052,0,0,1,4.585,3.634c.306.747,1.426.1,1.087-.645A7.1,7.1,0,0,0,64.431,7.58C63.616,7.444,63.276,8.7,64.091,8.837Z" transform="translate(-34.195 -2.954)"/>
      <path id="Path_47" data-name="Path 47" d="M72.811,4.388c2.072-.068,2.989,2.038,3.566,3.7.272.781,1.494.442,1.223-.34-.781-2.208-2.106-4.721-4.789-4.653C72,3.131,72,4.422,72.811,4.388Z" transform="translate(-39.859)"/>
      <path id="Path_48" data-name="Path 48" d="M18.954,77.178a12.361,12.361,0,0,0,3.668,4.483c.645.509,1.562-.408.917-.917A12.4,12.4,0,0,1,20.075,76.5C19.7,75.786,18.58,76.431,18.954,77.178Z" transform="translate(-4.647 -48.268)"/>
      <path id="Path_49" data-name="Path 49" d="M11.929,81.421a13.309,13.309,0,0,0,4.144,4.551c.679.475,1.325-.645.645-1.087a11.833,11.833,0,0,1-3.7-4.076C12.642,80.028,11.521,80.674,11.929,81.421Z" transform="translate(0 -51.085)"/>
    </g>
  </g>
</svg>
