<svg xmlns="http://www.w3.org/2000/svg" width="40" height="40" viewBox="0 0 40 40">
  <g id="Group_15" data-name="Group 15" transform="translate(-835 -882)">
    <rect id="Rectangle_5" data-name="Rectangle 5" width="40" height="40" transform="translate(835 882)" fill="#fff"/>
    <rect id="Rectangle_8" data-name="Rectangle 8" width="40" height="40" transform="translate(835 882)" fill="#fff"/>
    <g id="noun_Photo_1070594" transform="translate(839.66 879.51)">
      <path id="Path_8" data-name="Path 8" d="M3.071,20.136a58.071,58.071,0,0,0,1.21,6.819c.385,1.65.632,4.207,1.952,5.416,1.292,1.155,3.492.66,5.031.55,2.474-.165,4.976-.412,7.451-.715,2.282-.275,4.537-.6,6.791-.99,1.595-.275,2.694-.66,2.969-2.42.33-2.062-.247-4.289-.687-6.3-.495-2.337-1.017-4.674-1.512-6.984a.677.677,0,0,0-.66-.495c-1.155.11-3.189.742-4.234-.082-.55-.44-.825-1.072-1.457-1.485a8.034,8.034,0,0,0-4.454-.962,7.821,7.821,0,0,0-4.7,1.182,3.227,3.227,0,0,0-1.045,3.849c.137-.33.275-.66.412-1.017a17.22,17.22,0,0,0-7.561,3.409c-.687.55.275,1.512.962.962a14.964,14.964,0,0,1,6.9-3c.495-.082.577-.66.412-1.017C9.89,14.582,13.409,14,14.839,13.895a7.981,7.981,0,0,1,3.767.467c1.1.495,1.43,1.7,2.447,2.2,1.21.577,3.217-.027,4.482-.165l-.66-.495c.77,3.547,1.925,7.231,2.172,10.86.055.66.247,1.952-.192,2.529-.522.687-2.062.687-2.832.8-1.952.33-3.932.6-5.911.825-1.76.22-3.547.385-5.306.522-.99.082-1.952.137-2.942.22A3.769,3.769,0,0,1,7.168,31.3c-.742-.6-.88-1.787-1.127-2.694-.22-.825-.44-1.677-.632-2.529-.44-1.98-.8-3.959-1.045-5.939C4.336,19.284,2.961,19.256,3.071,20.136Z" transform="translate(0 0)"/>
      <path id="Path_9" data-name="Path 9" d="M43.473,37.108c-2.612-.33-5.719.66-6.214,3.6-.44,2.474,1.925,4.509,4.207,4.839A5.271,5.271,0,0,0,47.13,42.14c.907-2.474-.385-5.279-3.162-5.444-.88-.055-.88,1.32,0,1.375,2.474.165,2.447,3.244,1.237,4.729a3.863,3.863,0,0,1-4.014,1.292c-1.65-.467-3.189-2.145-2.31-3.9.88-1.7,2.914-1.925,4.619-1.7C44.353,38.593,44.326,37.218,43.473,37.108Z" transform="translate(-25.28 -17.549)"/>
      <path id="Path_10" data-name="Path 10" d="M55.16,45.865a.958.958,0,0,1,.495,1.7c-.66.6.33,1.567.962.962a2.342,2.342,0,0,0-1.457-4.042C54.28,44.408,54.28,45.783,55.16,45.865Z" transform="translate(-37.819 -23.2)"/>
      <path id="Path_11" data-name="Path 11" d="M17.609,43a1.092,1.092,0,0,0,1.98-.88,1.267,1.267,0,0,0-1.375-.852A1.553,1.553,0,0,0,17,42.341a.7.7,0,0,0,.467.852.719.719,0,0,0,.852-.467c-.027.055-.027.055.027-.027h0l.082-.082c0,.027-.027.027-.055.027-.055,0-.027,0,.055-.027h-.082a.027.027,0,0,1-.027-.028c.082.028.082.055.027.028,0-.137-.11.055-.055-.22a.318.318,0,0,1,.137-.192c.055-.027.22-.027.11-.027a.391.391,0,0,1,.165.055c.137.165.192.22.137.11a.7.7,0,0,0-.935-.247A.639.639,0,0,0,17.609,43Z" transform="translate(-10.606 -20.858)"/>
      <path id="Path_12" data-name="Path 12" d="M73.82,17.414A4.7,4.7,0,0,1,76.35,17c.88.082.88-1.292,0-1.375a5.924,5.924,0,0,0-3.217.6C72.308,16.617,73.023,17.8,73.82,17.414Z" transform="translate(-51.063 -2.254)"/>
      <path id="Path_13" data-name="Path 13" d="M70.744,57.955c.275,1.017.522,2.172-.715,2.529-1.127.33-2.365.467-3.547.687-.88.165-.495,1.485.357,1.32l2.887-.577a3.618,3.618,0,0,0,1.952-.8c.907-.935.687-2.392.385-3.547A.688.688,0,0,0,70.744,57.955Z" transform="translate(-46.144 -32.348)"/>
    </g>
    <g id="noun_Photo_1070594-2" data-name="noun_Photo_1070594" transform="translate(839.66 879.51)">
      <path id="Path_8-2" data-name="Path 8" d="M3.071,20.136a58.071,58.071,0,0,0,1.21,6.819c.385,1.65.632,4.207,1.952,5.416,1.292,1.155,3.492.66,5.031.55,2.474-.165,4.976-.412,7.451-.715,2.282-.275,4.537-.6,6.791-.99,1.595-.275,2.694-.66,2.969-2.42.33-2.062-.247-4.289-.687-6.3-.495-2.337-1.017-4.674-1.512-6.984a.677.677,0,0,0-.66-.495c-1.155.11-3.189.742-4.234-.082-.55-.44-.825-1.072-1.457-1.485a8.034,8.034,0,0,0-4.454-.962,7.821,7.821,0,0,0-4.7,1.182,3.227,3.227,0,0,0-1.045,3.849c.137-.33.275-.66.412-1.017a17.22,17.22,0,0,0-7.561,3.409c-.687.55.275,1.512.962.962a14.964,14.964,0,0,1,6.9-3c.495-.082.577-.66.412-1.017C9.89,14.582,13.409,14,14.839,13.895a7.981,7.981,0,0,1,3.767.467c1.1.495,1.43,1.7,2.447,2.2,1.21.577,3.217-.027,4.482-.165l-.66-.495c.77,3.547,1.925,7.231,2.172,10.86.055.66.247,1.952-.192,2.529-.522.687-2.062.687-2.832.8-1.952.33-3.932.6-5.911.825-1.76.22-3.547.385-5.306.522-.99.082-1.952.137-2.942.22A3.769,3.769,0,0,1,7.168,31.3c-.742-.6-.88-1.787-1.127-2.694-.22-.825-.44-1.677-.632-2.529-.44-1.98-.8-3.959-1.045-5.939C4.336,19.284,2.961,19.256,3.071,20.136Z" transform="translate(0 0)"/>
      <path id="Path_9-2" data-name="Path 9" d="M43.473,37.108c-2.612-.33-5.719.66-6.214,3.6-.44,2.474,1.925,4.509,4.207,4.839A5.271,5.271,0,0,0,47.13,42.14c.907-2.474-.385-5.279-3.162-5.444-.88-.055-.88,1.32,0,1.375,2.474.165,2.447,3.244,1.237,4.729a3.863,3.863,0,0,1-4.014,1.292c-1.65-.467-3.189-2.145-2.31-3.9.88-1.7,2.914-1.925,4.619-1.7C44.353,38.593,44.326,37.218,43.473,37.108Z" transform="translate(-25.28 -17.549)"/>
      <path id="Path_10-2" data-name="Path 10" d="M55.16,45.865a.958.958,0,0,1,.495,1.7c-.66.6.33,1.567.962.962a2.342,2.342,0,0,0-1.457-4.042C54.28,44.408,54.28,45.783,55.16,45.865Z" transform="translate(-37.819 -23.2)"/>
      <path id="Path_11-2" data-name="Path 11" d="M17.609,43a1.092,1.092,0,0,0,1.98-.88,1.267,1.267,0,0,0-1.375-.852A1.553,1.553,0,0,0,17,42.341a.7.7,0,0,0,.467.852.719.719,0,0,0,.852-.467c-.027.055-.027.055.027-.027h0l.082-.082c0,.027-.027.027-.055.027-.055,0-.027,0,.055-.027h-.082a.027.027,0,0,1-.027-.028c.082.028.082.055.027.028,0-.137-.11.055-.055-.22a.318.318,0,0,1,.137-.192c.055-.027.22-.027.11-.027a.391.391,0,0,1,.165.055c.137.165.192.22.137.11a.7.7,0,0,0-.935-.247A.639.639,0,0,0,17.609,43Z" transform="translate(-10.606 -20.858)"/>
      <path id="Path_12-2" data-name="Path 12" d="M73.82,17.414A4.7,4.7,0,0,1,76.35,17c.88.082.88-1.292,0-1.375a5.924,5.924,0,0,0-3.217.6C72.308,16.617,73.023,17.8,73.82,17.414Z" transform="translate(-51.063 -2.254)"/>
      <path id="Path_13-2" data-name="Path 13" d="M70.744,57.955c.275,1.017.522,2.172-.715,2.529-1.127.33-2.365.467-3.547.687-.88.165-.495,1.485.357,1.32l2.887-.577a3.618,3.618,0,0,0,1.952-.8c.907-.935.687-2.392.385-3.547A.688.688,0,0,0,70.744,57.955Z" transform="translate(-46.144 -32.348)"/>
    </g>
  </g>
</svg>
