<svg xmlns="http://www.w3.org/2000/svg" width="40" height="40" viewBox="0 0 40 40">
  <g id="Group_17" data-name="Group 17" transform="translate(-883 -861)">
    <rect id="Rectangle_6" data-name="Rectangle 6" width="40" height="40" transform="translate(883 861)" fill="#fff"/>
    <g id="noun_Map_1785086" transform="translate(882.964 862.677)">
      <path id="Path_14" data-name="Path 14" d="M64.233,25.665c-3.932-.171-8.241.821-9.3,5.129-.615,2.53.376,5.437,1.3,7.762A57.457,57.457,0,0,0,60.4,46.728a.82.82,0,0,0,1.231.171A20.476,20.476,0,0,0,68.713,32.88a7.024,7.024,0,0,0-2.291-5.915,5.679,5.679,0,0,0-6.428-.342c-.034.034,0,.068.034.068.581-.205,2.086.342,2.667.41a5.93,5.93,0,0,1,3.317,1.5c1.47,1.47,1.265,4.137.957,6.018a19.077,19.077,0,0,1-6.463,11.181c.41.068.821.1,1.231.171-2.257-3.83-4.855-7.933-5.676-12.344a6.042,6.042,0,0,1,2.5-6.531,10.848,10.848,0,0,1,5.676-1.2C64.37,25.87,64.37,25.665,64.233,25.665Z" transform="translate(-33.368 -15.349)"/>
      <path id="Path_15" data-name="Path 15" d="M70.1,28.434c.034,0,.034-.034,0-.034Z" transform="translate(-43.475 -17.16)"/>
      <path id="Path_16" data-name="Path 16" d="M70.1,28.434c.034,0,.034-.034,0-.034Z" transform="translate(-43.475 -17.16)"/>
      <path id="Path_17" data-name="Path 17" d="M70.1,28.434c.034,0,.034-.034,0-.034Z" transform="translate(-43.475 -17.16)"/>
      <path id="Path_18" data-name="Path 18" d="M70.1,28.934c.034,0,.034-.034,0-.034Z" transform="translate(-43.475 -17.489)"/>
      <path id="Path_19" data-name="Path 19" d="M74.251,39.671c.034,0,.034-.034,0,0C74.216,39.637,74.216,39.671,74.251,39.671Z" transform="translate(-46.189 -24.567)"/>
      <path id="Path_20" data-name="Path 20" d="M70.551,38.371c.034,0,.034-.034,0,0C70.516,38.337,70.516,38.371,70.551,38.371Z" transform="translate(-43.754 -23.712)"/>
      <path id="Path_21" data-name="Path 21" d="M70.1,34.671c.034,0,.034-.034,0,0Z" transform="translate(-43.475 -21.277)"/>
      <path id="Path_22" data-name="Path 22" d="M70.2,35.074a1.921,1.921,0,0,0-2.325,2.257c.342,1.744,2.8,2.017,4,1.06,1.47-1.128.957-3.077-.547-3.9-.957-.547-3.9-.513-3.659,1.163,0,.1.171.1.239.034.41-.718,1.846-.41,2.462-.308,1.026.171,1.71,1.265.923,2.086a1.768,1.768,0,0,1-2.325,0,1.593,1.593,0,0,1-.376-1.334,1.438,1.438,0,0,1,1.607-1.06Z" transform="translate(-41.869 -20.962)"/>
      <path id="Path_23" data-name="Path 23" d="M68.451,38.371c.034,0,.034-.034,0,0C68.416,38.337,68.416,38.371,68.451,38.371Z" transform="translate(-42.372 -23.712)"/>
      <path id="Path_24" data-name="Path 24" d="M39.971,70.057c1.3-4.308,4.479-7.933,6.634-11.8A.783.783,0,0,0,45.92,57.1c-.137,0-.239.034-.376.034a.573.573,0,0,0-.479.821c.068.1.1.205.171.308v-.786c-1.163,2.291-2.086,4.685-3.214,6.975-.855,1.812-1.915,3.556-2.052,5.608C39.937,70.091,39.971,70.091,39.971,70.057Z" transform="translate(-23.638 -36.044)"/>
      <path id="Path_25" data-name="Path 25" d="M55.851,58.771c.034,0,.034-.034,0,0C55.816,58.737,55.816,58.771,55.851,58.771Z" transform="translate(-34.081 -37.136)"/>
      <path id="Path_26" data-name="Path 26" d="M55.851,58.771c.034,0,.034-.034,0,0C55.816,58.737,55.816,58.771,55.851,58.771Z" transform="translate(-34.081 -37.136)"/>
      <path id="Path_27" data-name="Path 27" d="M55.851,58.771c.034,0,.034-.034,0,0C55.816,58.737,55.816,58.771,55.851,58.771Z" transform="translate(-34.081 -37.136)"/>
      <path id="Path_28" data-name="Path 28" d="M55.851,58.771c.034,0,.034-.034,0,0C55.816,58.737,55.816,58.771,55.851,58.771Z" transform="translate(-34.081 -37.136)"/>
      <path id="Path_29" data-name="Path 29" d="M55.851,58.771c.034,0,.034-.034,0,0C55.816,58.737,55.816,58.771,55.851,58.771Z" transform="translate(-34.081 -37.136)"/>
      <path id="Path_30" data-name="Path 30" d="M55.851,58.771c.034,0,.034-.034,0,0C55.816,58.737,55.816,58.771,55.851,58.771Z" transform="translate(-34.081 -37.136)"/>
      <path id="Path_31" data-name="Path 31" d="M55.851,58.771c.034,0,.034-.034,0,0C55.816,58.737,55.816,58.771,55.851,58.771Z" transform="translate(-34.081 -37.136)"/>
      <path id="Path_32" data-name="Path 32" d="M55.851,58.771c.034,0,.034-.034,0,0C55.816,58.737,55.816,58.771,55.851,58.771Z" transform="translate(-34.081 -37.136)"/>
      <path id="Path_33" data-name="Path 33" d="M55.851,58.771c.034,0,.034-.034,0,0C55.816,58.737,55.816,58.771,55.851,58.771Z" transform="translate(-34.081 -37.136)"/>
      <path id="Path_34" data-name="Path 34" d="M55.851,58.771c.034,0,.034-.034,0,0C55.816,58.737,55.816,58.771,55.851,58.771Z" transform="translate(-34.081 -37.136)"/>
      <path id="Path_35" data-name="Path 35" d="M55.851,59.171c.034,0,.034-.034,0,0C55.816,59.137,55.816,59.171,55.851,59.171Z" transform="translate(-34.081 -37.399)"/>
      <path id="Path_36" data-name="Path 36" d="M16.3,32.884C13.7,29.4,10.486,26.49,7.922,23c-2.77-3.761-2.565-8.583-.41-12.583A12.609,12.609,0,0,1,17.667,4.128c2.188-.171,4.411.445,5.608,2.394A7.471,7.471,0,0,1,24.129,9.5c.1.821-.034,1.3.615,1.881a.475.475,0,0,0,.65,0c1.163-1.094.239-4.035-.376-5.266a6.7,6.7,0,0,0-4.924-3.59C15.376,1.6,10.315,4.025,7.34,7.513A14.046,14.046,0,0,0,4.81,21.122c.889,2.428,2.735,4.308,4.479,6.121a31.513,31.513,0,0,0,6.907,5.71C16.265,32.987,16.333,32.953,16.3,32.884Z"/>
      <path id="Path_37" data-name="Path 37" d="M65.351,27.771c.034,0,.034-.034,0,0C65.316,27.737,65.316,27.771,65.351,27.771Z" transform="translate(-40.332 -16.736)"/>
      <path id="Path_38" data-name="Path 38" d="M34.159,22.8c-1.778-.308-3.932.957-2.941,2.941a2.864,2.864,0,0,0,4.992.171c1.128-1.881-.786-4.137-2.77-3.932a2.37,2.37,0,0,0-2.188,1.846A1.448,1.448,0,0,0,32.346,25.6a.212.212,0,0,0,.239-.308c-.479-.718.479-1.539,1.094-1.744.923-.274,1.607.752,1.436,1.573-.308,1.436-2.017,1.06-2.8.342-1.436-1.3.581-2.565,1.812-2.633C34.159,22.864,34.193,22.8,34.159,22.8Z" transform="translate(-17.723 -12.924)"/>
      <path id="Path_39" data-name="Path 39" d="M35.251,31.834c.034,0,.034-.034,0-.034S35.216,31.834,35.251,31.834Z" transform="translate(-20.525 -19.398)"/>
    </g>
  </g>
</svg>
